PathFileType	4	(X/Y/Z)	 1.8Hz3min.trc
DataRate	CameraRate	NumFrames	NumMarkers	Units	OrigDataRate	OrigDataStartFrame	OrigNumFrames
200	200	10	35	m	200	751	1000
Frame#	Time	C7			LSH			RSH			MAN			RASI			LASI			HIPR			HIPL			RPSI			LPSI			COX			RTHI1			RTHI2			RTHI3			RTHI4			RSHA1			RSHA2			RSHA3			RSHA4			RHEEL			RMET5			RMET1			RTOE			LTHI1			LTHI2			LTHI3			LTHI4			LSHA1			LSHA2			LSHA3			LSHA4			LHEEL			LMET5			LMET1			LTOE			
		X1	Y1	Z1	X2	Y2	Z2	X3	Y3	Z3	X4	Y4	Z4	X5	Y5	Z5	X6	Y6	Z6	X7	Y7	Z7	X8	Y8	Z8	X9	Y9	Z9	X10	Y10	Z10	X11	Y11	Z11	X12	Y12	Z12	X13	Y13	Z13	X14	Y14	Z14	X15	Y15	Z15	X16	Y16	Z16	X17	Y17	Z17	X18	Y18	Z18	X19	Y19	Z19	X20	Y20	Z20	X21	Y21	Z21	X22	Y22	Z22	X23	Y23	Z23	X24	Y24	Z24	X25	Y25	Z25	X26	Y26	Z26	X27	Y27	Z27	X28	Y28	Z28	X29	Y29	Z29	X30	Y30	Z30	X31	Y31	Z31	X32	Y32	Z32	X33	Y33	Z33	X34	Y34	Z34	X35	Y35	Z35	
751	3.7550	-0.293328	1.266610	-0.576084	-0.225228	1.223098	-0.754223	-0.225103	1.202242	-0.395596	-0.184242	1.200918	-0.579348	-0.197012	0.812503	-0.497444	-0.174207	0.822371	-0.683547	-0.262109	0.863604	-0.458866	-0.221072	0.871380	-0.727067	-0.343229	0.850880	-0.544381	-0.328676	0.852786	-0.659789	-0.338887	0.862640	-0.602497	-0.280500	0.596497	-0.449516	-0.251138	0.546061	-0.436436	-0.202000	0.576705	-0.407304	-0.225582	0.633268	-0.415892	-0.283689	0.256393	-0.407360	-0.308834	0.224031	-0.412610	-0.268774	0.191187	-0.391104	-0.238842	0.221554	-0.389392	-0.411540	0.062485	-0.451737	-0.265419	0.029228	-0.364603	-0.224761	0.032216	-0.442856	-0.203820	0.027060	-0.428485	-0.217915	0.613003	-0.769308	-0.196952	0.555049	-0.768187	-0.136275	0.571070	-0.750461	-0.149956	0.629266	-0.749834	-0.301192	0.229445	-0.776583	-0.324965	0.192333	-0.774945	-0.281364	0.162141	-0.762292	-0.253034	0.191314	-0.762943	-0.445456	0.074640	-0.730775	-0.287105	0.027268	-0.791879	-0.263889	0.034960	-0.713674	-0.235151	0.026474	-0.722324	
752	3.7600	-0.293477	1.265188	-0.575866	-0.225508	1.221480	-0.754115	-0.225295	1.200682	-0.395315	-0.184525	1.199382	-0.579177	-0.197052	0.811365	-0.497317	-0.174479	0.821146	-0.683397	-0.262031	0.862887	-0.458904	-0.221366	0.870413	-0.726637	-0.343414	0.849583	-0.544159	-0.328998	0.851401	-0.659615	-0.339116	0.861401	-0.602251	-0.279982	0.595019	-0.449171	-0.250296	0.544755	-0.436177	-0.201366	0.575631	-0.406999	-0.225249	0.632061	-0.415558	-0.282561	0.256369	-0.406916	-0.307823	0.224154	-0.412299	-0.267962	0.191132	-0.390884	-0.237907	0.221295	-0.388959	-0.411351	0.062889	-0.451659	-0.265352	0.029200	-0.364561	-0.224635	0.032213	-0.442824	-0.203684	0.027051	-0.428466	-0.217255	0.611739	-0.769065	-0.196023	0.553887	-0.767796	-0.135491	0.570213	-0.749862	-0.149439	0.628345	-0.749358	-0.299647	0.229389	-0.776290	-0.323691	0.192485	-0.774680	-0.280332	0.161992	-0.761764	-0.251800	0.190965	-0.762315	-0.445087	0.075364	-0.730777	-0.287003	0.027270	-0.791804	-0.263721	0.034891	-0.713579	-0.235012	0.026424	-0.722254	
753	3.7650	-0.293692	1.264231	-0.575648	-0.225808	1.220382	-0.753994	-0.225547	1.199720	-0.395019	-0.184838	1.198342	-0.579001	-0.196978	0.810572	-0.497109	-0.174651	0.820338	-0.683278	-0.261834	0.862369	-0.458852	-0.221626	0.869713	-0.726291	-0.343487	0.848665	-0.543859	-0.329220	0.850444	-0.659395	-0.339226	0.860588	-0.601947	-0.279446	0.594039	-0.448756	-0.249453	0.543921	-0.435886	-0.200699	0.574991	-0.406688	-0.224837	0.631304	-0.415213	-0.281585	0.256501	-0.406253	-0.306939	0.224395	-0.411747	-0.267186	0.191171	-0.390575	-0.237044	0.221194	-0.388430	-0.411204	0.063401	-0.451348	-0.265260	0.029157	-0.364458	-0.224555	0.032216	-0.442770	-0.203589	0.027046	-0.428443	-0.216582	0.610957	-0.768813	-0.195121	0.553192	-0.767417	-0.134735	0.569771	-0.749244	-0.148900	0.627854	-0.748844	-0.298205	0.229551	-0.776229	-0.322491	0.192824	-0.774655	-0.279364	0.162082	-0.761409	-0.250656	0.190883	-0.761847	-0.444719	0.076244	-0.731131	-0.286866	0.027263	-0.791790	-0.263618	0.034840	-0.713531	-0.234936	0.026389	-0.722183	
754	3.7700	-0.293966	1.263745	-0.575436	-0.226122	1.219802	-0.753870	-0.225849	1.199350	-0.394724	-0.185178	1.197799	-0.578823	-0.196766	0.810112	-0.496836	-0.174711	0.819975	-0.683170	-0.261554	0.862016	-0.458678	-0.221849	0.869272	-0.726052	-0.343430	0.848151	-0.543471	-0.329341	0.849929	-0.659116	-0.339206	0.860215	-0.601577	-0.278923	0.593572	-0.448294	-0.248693	0.543558	-0.435523	-0.200042	0.574785	-0.406362	-0.224370	0.631013	-0.414863	-0.280794	0.256738	-0.405395	-0.306226	0.224699	-0.410997	-0.266513	0.191291	-0.390124	-0.236322	0.221258	-0.387777	-0.411107	0.063955	-0.450859	-0.265155	0.029102	-0.364305	-0.224523	0.032223	-0.442697	-0.203536	0.027042	-0.428415	-0.215932	0.610651	-0.768558	-0.194283	0.552960	-0.767065	-0.134034	0.569734	-0.748639	-0.148365	0.627782	-0.748324	-0.296941	0.229886	-0.776337	-0.321419	0.193291	-0.774809	-0.278492	0.162382	-0.761214	-0.249647	0.191036	-0.761533	-0.444357	0.077209	-0.731729	-0.286702	0.027252	-0.791829	-0.263562	0.034805	-0.713522	-0.234904	0.026363	-0.722119	
755	3.7750	-0.294295	1.263732	-0.575237	-0.226454	1.219729	-0.753744	-0.226201	1.199567	-0.394432	-0.185553	1.197760	-0.578644	-0.196413	0.810007	-0.496505	-0.174641	0.820079	-0.683063	-0.261172	0.861838	-0.458352	-0.222019	0.869139	-0.725915	-0.343224	0.848071	-0.543000	-0.329345	0.849883	-0.658758	-0.339047	0.860289	-0.601132	-0.278440	0.593622	-0.447792	-0.248057	0.543666	-0.435093	-0.199439	0.574995	-0.406015	-0.223878	0.631180	-0.414507	-0.280223	0.257039	-0.404418	-0.305713	0.225030	-0.410117	-0.265971	0.191480	-0.389599	-0.235685	0.221302	-0.387351	-0.411058	0.064507	-0.450255	-0.265044	0.029044	-0.364123	-0.224537	0.032231	-0.442606	-0.203521	0.027042	-0.428381	-0.215337	0.610819	-0.768308	-0.193552	0.553182	-0.766743	-0.133422	0.570084	-0.748077	-0.147858	0.628112	-0.747828	-0.295902	0.230362	-0.776558	-0.320522	0.193864	-0.775092	-0.277741	0.162860	-0.761141	-0.248795	0.191417	-0.761357	-0.444005	0.078199	-0.732459	-0.286520	0.027236	-0.791905	-0.263534	0.034786	-0.713544	-0.234896	0.026346	-0.722064	
756	3.7800	-0.294671	1.264197	-0.575052	-0.226798	1.220174	-0.753622	-0.226597	1.200363	-0.394149	-0.185968	1.198223	-0.578468	-0.195911	0.810286	-0.496130	-0.174429	0.820654	-0.682940	-0.260648	0.861888	-0.457853	-0.222111	0.869387	-0.725850	-0.342853	0.848462	-0.542462	-0.329198	0.850354	-0.658323	-0.338746	0.860819	-0.600621	-0.278024	0.594178	-0.447261	-0.247570	0.544234	-0.434617	-0.198924	0.575604	-0.405644	-0.223390	0.631788	-0.414141	-0.279902	0.257376	-0.403413	-0.305430	0.225366	-0.409185	-0.265552	0.191633	-0.389158	-0.235246	0.221453	-0.386944	-0.411029	0.065008	-0.449567	-0.264941	0.028987	-0.363924	-0.224588	0.032243	-0.442504	-0.203541	0.027042	-0.428340	-0.214830	0.611451	-0.768061	-0.192973	0.553840	-0.766453	-0.132928	0.570806	-0.747589	-0.147406	0.628828	-0.747386	-0.295124	0.230932	-0.776851	-0.319820	0.194508	-0.775436	-0.277140	0.163485	-0.761154	-0.248137	0.191990	-0.761290	-0.443669	0.079161	-0.733215	-0.286336	0.027218	-0.791995	-0.263519	0.034777	-0.713586	-0.234900	0.026335	-0.722021	
757	3.7850	-0.295086	1.265143	-0.574884	-0.227153	1.221131	-0.753504	-0.227028	1.201731	-0.393880	-0.186432	1.199180	-0.578298	-0.195249	0.811013	-0.495773	-0.174066	0.821693	-0.682787	-0.259943	0.862271	-0.457218	-0.222086	0.870090	-0.725808	-0.342313	0.849349	-0.541872	-0.328893	0.851335	-0.657816	-0.338297	0.861807	-0.600061	-0.277689	0.595230	-0.446711	-0.247252	0.545256	-0.434103	-0.198523	0.576594	-0.405245	-0.222925	0.632799	-0.413760	-0.279846	0.257741	-0.402450	-0.305392	0.225700	-0.408262	-0.265269	0.191738	-0.388861	-0.235028	0.221724	-0.386567	-0.411007	0.065458	-0.448861	-0.264853	0.028937	-0.363726	-0.224666	0.032258	-0.442397	-0.203588	0.027042	-0.428292	-0.214445	0.612532	-0.767810	-0.192582	0.554923	-0.766198	-0.132580	0.571879	-0.747199	-0.147044	0.629905	-0.747008	-0.294630	0.231602	-0.777186	-0.319348	0.195216	-0.775803	-0.276707	0.164262	-0.761235	-0.247703	0.192741	-0.761306	-0.443355	0.080059	-0.733909	-0.286166	0.027199	-0.792086	-0.263507	0.034777	-0.713639	-0.234907	0.026330	-0.721991	
758	3.7900	-0.295551	1.266560	-0.574732	-0.227529	1.222606	-0.753386	-0.227457	1.203629	-0.393651	-0.186895	1.200678	-0.578137	-0.194423	0.812231	-0.495454	-0.173550	0.823189	-0.682599	-0.259098	0.863144	-0.456563	-0.221909	0.871308	-0.725732	-0.341602	0.850748	-0.541249	-0.328423	0.852825	-0.657245	-0.337698	0.863257	-0.599462	-0.277440	0.596761	-0.446141	-0.247108	0.546707	-0.433551	-0.198242	0.577937	-0.404819	-0.222498	0.634210	-0.413346	-0.280052	0.258143	-0.401604	-0.305595	0.226058	-0.407404	-0.265185	0.191922	-0.388596	-0.235053	0.222143	-0.386238	-0.411000	0.065898	-0.448216	-0.264783	0.028892	-0.363544	-0.224759	0.032274	-0.442285	-0.203652	0.027043	-0.428244	-0.214205	0.614054	-0.767555	-0.192409	0.556416	-0.765970	-0.132403	0.573285	-0.746920	-0.146790	0.631331	-0.746708	-0.294456	0.232373	-0.777523	-0.319142	0.195985	-0.776133	-0.276469	0.165182	-0.761366	-0.247524	0.193667	-0.761386	-0.443072	0.080874	-0.734475	-0.286022	0.027182	-0.792165	-0.263489	0.034784	-0.713698	-0.234913	0.026328	-0.721974	
759	3.7950	-0.296056	1.268444	-0.574595	-0.227931	1.224594	-0.753266	-0.227877	1.206035	-0.393466	-0.187365	1.202704	-0.577986	-0.193446	0.813960	-0.495155	-0.172881	0.825121	-0.682370	-0.258043	0.864578	-0.455900	-0.221542	0.873088	-0.725574	-0.340728	0.852661	-0.540607	-0.327779	0.854808	-0.656630	-0.336955	0.865153	-0.598839	-0.277270	0.598756	-0.445542	-0.247129	0.548580	-0.432967	-0.198072	0.579633	-0.404375	-0.222110	0.635996	-0.412897	-0.280522	0.258618	-0.400925	-0.306031	0.226466	-0.406666	-0.265282	0.192195	-0.388418	-0.235313	0.222717	-0.385979	-0.410993	0.066340	-0.447659	-0.264730	0.028856	-0.363389	-0.224850	0.032292	-0.442174	-0.203721	0.027046	-0.428198	-0.214125	0.616007	-0.767292	-0.192476	0.558307	-0.765769	-0.132414	0.575012	-0.746757	-0.146661	0.633088	-0.746489	-0.294619	0.233254	-0.777840	-0.319219	0.196834	-0.776396	-0.276439	0.166257	-0.761534	-0.247618	0.194789	-0.761526	-0.442826	0.081600	-0.734878	-0.285918	0.027164	-0.792217	-0.263465	0.034796	-0.713757	-0.234916	0.026329	-0.721972	
760	3.8000	-0.296585	1.270790	-0.574472	-0.228370	1.227086	-0.753140	-0.228280	1.208929	-0.393329	-0.187838	1.205243	-0.577844	-0.192321	0.816191	-0.494859	-0.172071	0.827472	-0.682100	-0.256779	0.866662	-0.455248	-0.220963	0.875425	-0.725304	-0.339699	0.855073	-0.539967	-0.326965	0.857271	-0.656001	-0.336071	0.867487	-0.598213	-0.277174	0.601207	-0.444920	-0.247309	0.550866	-0.432354	-0.197997	0.581677	-0.403914	-0.221751	0.638152	-0.412421	-0.281249	0.259216	-0.400409	-0.306680	0.226961	-0.406076	-0.265571	0.192634	-0.388288	-0.235846	0.223549	-0.385628	-0.410967	0.066801	-0.447212	-0.264694	0.028824	-0.363268	-0.224928	0.032310	-0.442069	-0.203785	0.027048	-0.428156	-0.214216	0.618375	-0.767018	-0.192791	0.560583	-0.765596	-0.132621	0.577042	-0.746707	-0.146662	0.635160	-0.746344	-0.295139	0.234246	-0.778112	-0.319587	0.197781	-0.776574	-0.276640	0.167491	-0.761740	-0.248001	0.196103	-0.761717	-0.442611	0.082258	-0.735104	-0.285856	0.027151	-0.792241	-0.263431	0.034812	-0.713813	-0.234917	0.026333	-0.721983	
